PathFileType	4	(X/Y/Z)	13_coords_data.trc
DataRate	CameraRate	NumFrames	NumMarkers	Units	OrigDataRate	OrigDataStartFrame	OrigNumFrames
30.0	30.0	7	21	m	30.0	31	51
Frame#	Time	THUMB_TIP	THUMB_IP	THUMB_MCP	THUMB_CMC	INDEX_TIP	INDEX_DIP	INDEX_PIP	INDEX_MCP	MIDDLE_TIP	MIDDLE_DIP	MIDDLE_PIP	MIDDLE_MCP	RING_TIP	RING_DIP	RING_PIP	RING_MCP	PINKY_TIP	PINKY_DIP	PINKY_PIP	PINKY_MCP	WRIST
X1	Y1	Z1	X2	Y2	Z2	X3	Y3	Z3	X4	Y4	Z4	X5	Y5	Z5	X6	Y6	Z6	X7	Y7	Z7	X8	Y8	Z8	X9	Y9	Z9	X10	Y10	Z10	X11	Y11	Z11	X12	Y12	Z12	X13	Y13	Z13	X14	Y14	Z14	X15	Y15	Z15	X16	Y16	Z16	X17	Y17	Z17	X18	Y18	Z18	X19	Y19	Z19	X20	Y20	Z20	X21	Y21	Z21
29	0.9999999999999956	0.5052330863619343	-0.01350417865616016	-0.16605359553740712	0.4972715803207724	-0.018035033974256653	-0.14498025285896565	0.4771178531551329	-0.024225652058415537	-0.12208214094839431	0.47303125022622106	-0.028824999637957593	-0.07790029311080415	0.5739684723769283	0.033984955743399214	-0.154616256854338	0.5572407921963831	0.03403543285928112	-0.14767491924274095	0.5344924757466238	0.0315445811190157	-0.1372672495078951	0.5007386384133758	0.015894635607038965	-0.11654543094019221	0.5941869737614824	0.044222158219993646	-0.13025377768183422	0.5775152841659924	0.04325912333914872	-0.1232446885933785	0.5505882412828761	0.03984863946626671	-0.11262807372216699	0.5122538796653362	0.02407424567532135	-0.09596094616808998	0.5994176262905713	0.04310632221240096	-0.10625807579405278	0.5833402583883683	0.039383853105963595	-0.09900125382511632	0.5608936234162359	0.03319935984169953	-0.09016493103268064	0.5247383020748729	0.019876672814765017	-0.07791668286875353	0.6011617744339365	0.02349087996330801	-0.06469744132614652	0.5843414452870068	0.0214402468447904	-0.06227433769604984	0.5637171620412624	0.0180235841224744	-0.06033079056741075	0.5294015308541871	0.006970577323174965	-0.05925750219643733	0.46228308100186083	-0.023011742144276925	-0.051989820119430985
30	1.0333333333333288	0.5102264403001708	-0.01027085245764836	-0.16317517528628478	0.5003230215875624	-0.015233369810102038	-0.143043217623669	0.47897857985910325	-0.02278345490091116	-0.12168365249649571	0.4735365064426682	-0.028432522614198374	-0.07777053519766547	0.5737549348617328	0.031936762148321196	-0.15216847362193076	0.5569124234738023	0.033706190117356205	-0.14574983398336022	0.533761515404817	0.033026954494237204	-0.13597313067653538	0.49918745684203225	0.01814366926276234	-0.11605433580295682	0.5933196129478084	0.041150496012564264	-0.12967303268546593	0.5766299536266863	0.041702142602392245	-0.12266225827853955	0.5495088011779132	0.04040243278632616	-0.11207153619529958	0.5105190683738932	0.026399878910435604	-0.09534200715757973	0.5985158943565636	0.040773372701991994	-0.1069130776267927	0.5823333017574364	0.03848475700670562	-0.09930479694256694	0.5596037114590177	0.03428235096564325	-0.0900373546129879	0.5230492679658776	0.022560969341238968	-0.07734473046658275	0.6003439819431569	0.022323095825055317	-0.0676579608195127	0.5835700051269523	0.02150274406682784	-0.06434726228865756	0.5628881027573689	0.01935603844523026	-0.0614382094618392	0.5283357398711035	0.009338974660346278	-0.058854393852047715	0.4622830810018609	-0.023011742144276925	-0.051989820119430985
31	1.0666666666666622	0.5143639477850455	-0.007856107959820169	-0.16043645185892674	0.5028915613480132	-0.013167754485475802	-0.14124867552538845	0.48067331528556406	-0.021819157764110808	-0.12124060807201142	0.47400238991584187	-0.0282350687191949	-0.07760318329318161	0.5733869599459507	0.029504782458552703	-0.15022404573928572	0.5565998052262658	0.03281744190489044	-0.14428959346380543	0.5332348025196407	0.03376881680483246	-0.1350602182238903	0.4980106034636853	0.01961016639881963	-0.11576191483870263	0.5923497741056623	0.037826929645916496	-0.1294609495310169	0.5757657146308954	0.03974884940928258	-0.12244132021312698	0.5486193080804678	0.04038611390920077	-0.11185472230085886	0.5091516295276234	0.028033856047467665	-0.09494697270587715	0.5975683415255966	0.03773543299820703	-0.10756054629679251	0.5813867730046678	0.03696238039410549	-0.09965110700732455	0.5585256001256471	0.03478535848242681	-0.09001745094165559	0.521659366473368	0.02458122227089843	-0.07692251854503201	0.5994570542596867	0.02038710247028397	-0.07010797275865882	0.5828353687549106	0.020849614586429532	-0.06604525771539788	0.5621888429790833	0.019991202410954423	-0.06233094473382372	0.5274138059886617	0.011230013127742633	-0.058481033610362276	0.4622830810018609	-0.023011742144276925	-0.051989820119430985
32	1.0999999999999952	0.517717598323143	-0.0064053223434111795	-0.15806272210836425	0.5050470842252106	-0.01197242924132702	-0.13971972907883723	0.4822163431114133	-0.021421410504260496	-0.1207910732024286	0.47448289132627447	-0.028201573412793057	-0.07738470138421871	0.5729934330745063	0.027087393707411533	-0.14884774654677302	0.5563523618007729	0.03163976320419559	-0.14333860152896172	0.5329042760402352	0.03395339802507902	-0.13457251910395224	0.4972387718540904	0.020325272389029814	-0.11570768152722882	0.5914207764761059	0.034689134967269	-0.1294953016356069	0.5750028447754452	0.037765625687758764	-0.12249625001991088	0.5479355695825109	0.04002942940272358	-0.11192991875640784	0.5081585088931397	0.029046302166710447	-0.0948037901795335	0.596613222370711	0.03444048467669558	-0.10803241159062965	0.5805225847614031	0.03517983371228628	-0.09993644072053048	0.5576618488155014	0.03494080096759644	-0.09006174607417666	0.5205600194345772	0.026042621155895618	-0.07668275184338968	0.5985361947911718	0.01805435623873697	-0.07182555102437088	0.5821381169180468	0.019760946239513633	-0.06722222693886726	0.5615891353088984	0.02018658503237203	-0.06293617917374705	0.5266173711662047	0.012758413272823454	-0.05817367688414665	0.46228308100186094	-0.023011742144276925	-0.051989820119430985
33	1.1333333333333284	0.5201547963401482	-0.005963574980553221	-0.156287797597237	0.5066407149164378	-0.011676192418282105	-0.13860346539939933	0.48342680062002175	-0.021626877690319013	-0.12041231244925571	0.47489945137967127	-0.02835900187848317	-0.07714739803990744	0.5725111775671102	0.024702776019181916	-0.1482312497709577	0.5560590056781152	0.030255544131879586	-0.14308413344999033	0.53260874166029	0.03362079720020028	-0.13467164141252275	0.4967236834368293	0.02030057731163004	-0.11600427865237417	0.5905559402280331	0.03166114315315083	-0.12989770758527586	0.5743351984564855	0.03574409658553557	-0.1229538593978694	0.547402774033952	0.039365693876416974	-0.11242114380372165	0.5074507606034432	0.029465537318452695	-0.09504381823342017	0.5956349982165938	0.03089307255327145	-0.10857764352796939	0.579731637497336	0.03314706126178901	-0.10039212871611775	0.5569923194076085	0.03475342506631107	-0.09036601345936379	0.5197232484948235	0.0269870428719442	-0.0767490940240127	0.5976410798192601	0.015303410626907876	-0.07310121558842697	0.5815256389565913	0.01823449653853282	-0.06813117522837997	0.5611273586835728	0.019907506765634242	-0.06344895164514525	0.525971603618032	0.013914864028817808	-0.058059650224683956	0.4622830810018609	-0.023011742144276925	-0.051989820119430985
34	1.1666666666666616	0.5215097550990033	-0.006351690336482418	-0.1552986411327778	0.5075055978522752	-0.012148702701501257	-0.13802790786957408	0.4841255272568117	-0.022312466226974692	-0.12017041056593725	0.47519744211782283	-0.02866338290883519	-0.07692870438948035	0.5719597775604459	0.0221648124035696	-0.14844147489586046	0.5557133139124739	0.028506280834582398	-0.14355903727991592	0.5323263038212722	0.03271304986284573	-0.13535168165603373	0.4963790628866115	0.019641468196207157	-0.11662828143284104	0.589881056349868	0.02839601286984683	-0.13063807033885938	0.5738807002604531	0.03340703826086178	-0.12379130252166826	0.5471174166713386	0.03825891206641541	-0.11332251452574316	0.5070663866150836	0.029268069303175492	-0.09568086894377859	0.5947148914454059	0.026964713417389596	-0.10943185077826445	0.5791071258166726	0.030708203285398583	-0.10122307890382165	0.5566032560300205	0.03403154195135183	-0.09108842332325118	0.5192219359442266	0.027324678332600993	-0.07721846575147373	0.596810986377938	0.011988465400542436	-0.07430283292117118	0.5810479740515939	0.016134985706986682	-0.0690746581203664	0.560856775683968	0.019043701633548182	-0.0641080799081819	0.5255439786688795	0.014610419051086287	-0.058256941257013084	0.4622830810018609	-0.023011742144276925	-0.051989820119430985
35	1.1999999999999948	0.5219410480047686	-0.007315261862522071	-0.155030050690176	0.5077328102502823	-0.013117592126027255	-0.1379286196557507	0.4843449998034089	-0.023253830423262678	-0.1200656133107153	0.4754042078896126	-0.028998658853866655	-0.07674184170369669	0.5714584492583021	0.01955569841107352	-0.14909385166808203	0.5553910270347446	0.026486867119807855	-0.1444251427008203	0.5320874502586054	0.03136821433446857	-0.13635509983795335	0.49613604246443743	0.0186419752075635	-0.11740318148380591	0.5893783644443877	0.025253995297160103	-0.13137590167822188	0.5735836114517842	0.03105528782258349	-0.12467733594090852	0.5469721897263765	0.03695769220039069	-0.11436213326169037	0.5068397243642839	0.028744965287742064	-0.09652721633957678	0.5938318333875325	0.023291479732714393	-0.11033500696848181	0.5785723129266769	0.02836449731145707	-0.10218568012815332	0.5563426603624482	0.03316181704906873	-0.09203638216185012	0.5189025237468483	0.027320511229803057	-0.07793545486854664	0.5959590627418707	0.008995530952650377	-0.07542202178357627	0.5805714661287475	0.014212089138373907	-0.07003598509907821	0.5606147742692553	0.018189073814156798	-0.06486625958278003	0.525219363748479	0.015080736461599464	-0.058670567210782676	0.4622830810018609	-0.023011742144276925	-0.051989820119430985
